<?xml version="1.0" encoding="UTF-8" standalone="no"?>
<!DOCTYPE svg PUBLIC "-//W3C//DTD SVG 1.1//EN"
 "http://www.w3.org/Graphics/SVG/1.1/DTD/svg11.dtd">
<!-- Generated by graphviz version 3.0.0 (20220226.1711)
 -->
<!-- Title: dependencies Pages: 1 -->
<svg width="1476pt" height="247pt"
 viewBox="0.00 0.00 1476.00 246.80" xmlns="http://www.w3.org/2000/svg" xmlns:xlink="http://www.w3.org/1999/xlink">
<g id="graph0" class="graph" transform="scale(1 1) rotate(0) translate(4 242.8)">
<title>dependencies</title>
<polygon fill="white" stroke="transparent" points="-4,4 -4,-242.8 1472,-242.8 1472,4 -4,4"/>
<text text-anchor="middle" x="734" y="-8.2" font-family="sans-serif" font-size="14.00">dependencies</text>
<g id="clust1" class="cluster">
<title>cluster_AppModule</title>
<polygon fill="none" stroke="black" stroke-dasharray="1,5" points="8,-32.8 8,-230.8 1460,-230.8 1460,-32.8 8,-32.8"/>
</g>
<g id="clust2" class="cluster">
<title>cluster_AppModule_declarations</title>
<polygon fill="none" stroke="black" points="499,-40.8 499,-92.8 1452,-92.8 1452,-40.8 499,-40.8"/>
</g>
<g id="clust10" class="cluster">
<title>cluster_AppModule_imports</title>
<polygon fill="none" stroke="black" points="347,-40.8 347,-92.8 491,-92.8 491,-40.8 347,-40.8"/>
</g>
<g id="clust12" class="cluster">
<title>cluster_AppModule_bootstrap</title>
<polygon fill="none" stroke="black" points="725,-170.8 725,-222.8 849,-222.8 849,-170.8 725,-170.8"/>
</g>
<g id="clust13" class="cluster">
<title>cluster_AppModule_providers</title>
<polygon fill="none" stroke="black" points="16,-40.8 16,-92.8 339,-92.8 339,-40.8 16,-40.8"/>
</g>
<!-- AppComponent -->
<g id="node1" class="node">
<title>AppComponent</title>
<polygon fill="#ffffb3" stroke="black" points="1443.94,-84.8 1338.06,-84.8 1338.06,-48.8 1443.94,-48.8 1443.94,-84.8"/>
<text text-anchor="middle" x="1391" y="-62.6" font-family="Times,serif" font-size="14.00">AppComponent</text>
</g>
<!-- AppModule -->
<g id="node8" class="node">
<title>AppModule</title>
<polygon fill="#8dd3c7" stroke="black" points="828.66,-149.8 825.66,-153.8 804.66,-153.8 801.66,-149.8 745.34,-149.8 745.34,-113.8 828.66,-113.8 828.66,-149.8"/>
<text text-anchor="middle" x="787" y="-127.6" font-family="Times,serif" font-size="14.00">AppModule</text>
</g>
<!-- AppComponent&#45;&gt;AppModule -->
<g id="edge1" class="edge">
<title>AppComponent&#45;&gt;AppModule</title>
<path fill="none" stroke="black" d="M1391,-84.81C1391,-107.29 1391,-142.8 1391,-142.8 1391,-142.8 838.99,-142.8 838.99,-142.8"/>
<polygon fill="black" stroke="black" points="838.99,-139.3 828.99,-142.8 838.99,-146.3 838.99,-139.3"/>
</g>
<!-- HomeComponent -->
<g id="node2" class="node">
<title>HomeComponent</title>
<polygon fill="#ffffb3" stroke="black" points="1320.55,-84.8 1205.45,-84.8 1205.45,-48.8 1320.55,-48.8 1320.55,-84.8"/>
<text text-anchor="middle" x="1263" y="-62.6" font-family="Times,serif" font-size="14.00">HomeComponent</text>
</g>
<!-- HomeComponent&#45;&gt;AppModule -->
<g id="edge2" class="edge">
<title>HomeComponent&#45;&gt;AppModule</title>
<path fill="none" stroke="black" d="M1263,-84.93C1263,-105.37 1263,-135.8 1263,-135.8 1263,-135.8 838.82,-135.8 838.82,-135.8"/>
<polygon fill="black" stroke="black" points="838.82,-132.3 828.82,-135.8 838.82,-139.3 838.82,-132.3"/>
</g>
<!-- MapComponent -->
<g id="node3" class="node">
<title>MapComponent</title>
<polygon fill="#ffffb3" stroke="black" points="1187.49,-84.8 1080.51,-84.8 1080.51,-48.8 1187.49,-48.8 1187.49,-84.8"/>
<text text-anchor="middle" x="1134" y="-62.6" font-family="Times,serif" font-size="14.00">MapComponent</text>
</g>
<!-- MapComponent&#45;&gt;AppModule -->
<g id="edge3" class="edge">
<title>MapComponent&#45;&gt;AppModule</title>
<path fill="none" stroke="black" d="M1134,-85.07C1134,-103.36 1134,-128.8 1134,-128.8 1134,-128.8 838.86,-128.8 838.86,-128.8"/>
<polygon fill="black" stroke="black" points="838.86,-125.3 828.86,-128.8 838.86,-132.3 838.86,-125.3"/>
</g>
<!-- MenuComponent -->
<g id="node4" class="node">
<title>MenuComponent</title>
<polygon fill="#ffffb3" stroke="black" points="1062.99,-84.8 949.01,-84.8 949.01,-48.8 1062.99,-48.8 1062.99,-84.8"/>
<text text-anchor="middle" x="1006" y="-62.6" font-family="Times,serif" font-size="14.00">MenuComponent</text>
</g>
<!-- MenuComponent&#45;&gt;AppModule -->
<g id="edge4" class="edge">
<title>MenuComponent&#45;&gt;AppModule</title>
<path fill="none" stroke="black" d="M1006,-84.81C1006,-100.85 1006,-121.8 1006,-121.8 1006,-121.8 838.71,-121.8 838.71,-121.8"/>
<polygon fill="black" stroke="black" points="838.71,-118.3 828.71,-121.8 838.71,-125.3 838.71,-118.3"/>
</g>
<!-- UserAddComponent -->
<g id="node5" class="node">
<title>UserAddComponent</title>
<polygon fill="#ffffb3" stroke="black" points="930.88,-84.8 799.12,-84.8 799.12,-48.8 930.88,-48.8 930.88,-84.8"/>
<text text-anchor="middle" x="865" y="-62.6" font-family="Times,serif" font-size="14.00">UserAddComponent</text>
</g>
<!-- UserAddComponent&#45;&gt;AppModule -->
<g id="edge5" class="edge">
<title>UserAddComponent&#45;&gt;AppModule</title>
<path fill="none" stroke="black" d="M813.95,-84.91C813.95,-84.91 813.95,-103.79 813.95,-103.79"/>
<polygon fill="black" stroke="black" points="810.45,-103.79 813.95,-113.79 817.45,-103.79 810.45,-103.79"/>
</g>
<!-- UserDetailComponent -->
<g id="node6" class="node">
<title>UserDetailComponent</title>
<polygon fill="#ffffb3" stroke="black" points="780.97,-84.8 639.03,-84.8 639.03,-48.8 780.97,-48.8 780.97,-84.8"/>
<text text-anchor="middle" x="710" y="-62.6" font-family="Times,serif" font-size="14.00">UserDetailComponent</text>
</g>
<!-- UserDetailComponent&#45;&gt;AppModule -->
<g id="edge6" class="edge">
<title>UserDetailComponent&#45;&gt;AppModule</title>
<path fill="none" stroke="black" d="M763.08,-84.91C763.08,-84.91 763.08,-103.79 763.08,-103.79"/>
<polygon fill="black" stroke="black" points="759.58,-103.79 763.08,-113.79 766.58,-103.79 759.58,-103.79"/>
</g>
<!-- UsersComponent -->
<g id="node7" class="node">
<title>UsersComponent</title>
<polygon fill="#ffffb3" stroke="black" points="620.71,-84.8 507.29,-84.8 507.29,-48.8 620.71,-48.8 620.71,-84.8"/>
<text text-anchor="middle" x="564" y="-62.6" font-family="Times,serif" font-size="14.00">UsersComponent</text>
</g>
<!-- UsersComponent&#45;&gt;AppModule -->
<g id="edge7" class="edge">
<title>UsersComponent&#45;&gt;AppModule</title>
<path fill="none" stroke="black" d="M564,-84.81C564,-100.85 564,-121.8 564,-121.8 564,-121.8 735.32,-121.8 735.32,-121.8"/>
<polygon fill="black" stroke="black" points="735.32,-125.3 745.32,-121.8 735.32,-118.3 735.32,-125.3"/>
</g>
<!-- AppComponent  -->
<g id="node10" class="node">
<title>AppComponent </title>
<polygon fill="#80b1d3" stroke="black" points="841.44,-214.8 732.56,-214.8 732.56,-178.8 841.44,-178.8 841.44,-214.8"/>
<text text-anchor="middle" x="787" y="-192.6" font-family="Times,serif" font-size="14.00">AppComponent </text>
</g>
<!-- AppModule&#45;&gt;AppComponent  -->
<g id="edge9" class="edge">
<title>AppModule&#45;&gt;AppComponent </title>
<path fill="none" stroke="black" stroke-dasharray="1,5" d="M787,-149.91C787,-149.91 787,-168.79 787,-168.79"/>
<polygon fill="black" stroke="black" points="783.5,-168.79 787,-178.79 790.5,-168.79 783.5,-168.79"/>
</g>
<!-- AppRoutingModule -->
<g id="node9" class="node">
<title>AppRoutingModule</title>
<polygon fill="#8dd3c7" stroke="black" points="483.28,-84.8 480.28,-88.8 459.28,-88.8 456.28,-84.8 354.72,-84.8 354.72,-48.8 483.28,-48.8 483.28,-84.8"/>
<text text-anchor="middle" x="419" y="-62.6" font-family="Times,serif" font-size="14.00">AppRoutingModule</text>
</g>
<!-- AppRoutingModule&#45;&gt;AppModule -->
<g id="edge8" class="edge">
<title>AppRoutingModule&#45;&gt;AppModule</title>
<path fill="none" stroke="black" d="M419,-85.07C419,-103.36 419,-128.8 419,-128.8 419,-128.8 735.14,-128.8 735.14,-128.8"/>
<polygon fill="black" stroke="black" points="735.14,-132.3 745.14,-128.8 735.14,-125.3 735.14,-132.3"/>
</g>
<!-- ApiuserService -->
<g id="node11" class="node">
<title>ApiuserService</title>
<ellipse fill="#fdb462" stroke="black" cx="260" cy="-66.8" rx="70.63" ry="18"/>
<text text-anchor="middle" x="260" y="-62.6" font-family="Times,serif" font-size="14.00">ApiuserService</text>
</g>
<!-- ApiuserService&#45;&gt;AppModule -->
<g id="edge10" class="edge">
<title>ApiuserService&#45;&gt;AppModule</title>
<path fill="none" stroke="black" d="M260,-84.93C260,-105.37 260,-135.8 260,-135.8 260,-135.8 735.21,-135.8 735.21,-135.8"/>
<polygon fill="black" stroke="black" points="735.21,-139.3 745.21,-135.8 735.21,-132.3 735.21,-139.3"/>
</g>
<!-- ErrorInterceptor -->
<g id="node12" class="node">
<title>ErrorInterceptor</title>
<ellipse fill="#fdb462" stroke="black" cx="98" cy="-66.8" rx="73.54" ry="18"/>
<text text-anchor="middle" x="98" y="-62.6" font-family="Times,serif" font-size="14.00">ErrorInterceptor</text>
</g>
<!-- ErrorInterceptor&#45;&gt;AppModule -->
<g id="edge11" class="edge">
<title>ErrorInterceptor&#45;&gt;AppModule</title>
<path fill="none" stroke="black" d="M98,-84.81C98,-107.29 98,-142.8 98,-142.8 98,-142.8 735.19,-142.8 735.19,-142.8"/>
<polygon fill="black" stroke="black" points="735.19,-146.3 745.19,-142.8 735.19,-139.3 735.19,-146.3"/>
</g>
</g>
</svg>
