<?xml version="1.0" encoding="UTF-8" standalone="no"?>
<!DOCTYPE svg PUBLIC "-//W3C//DTD SVG 1.1//EN"
 "http://www.w3.org/Graphics/SVG/1.1/DTD/svg11.dtd">
<!-- Generated by graphviz version 3.0.0 (20220226.1711)
 -->
<!-- Title: dependencies Pages: 1 -->
<svg width="1476pt" height="247pt"
 viewBox="0.00 0.00 1476.00 246.80" xmlns="http://www.w3.org/2000/svg" xmlns:xlink="http://www.w3.org/1999/xlink">
<g id="graph0" class="graph" transform="scale(1 1) rotate(0) translate(4 242.8)">
<title>dependencies</title>
<polygon fill="white" stroke="transparent" points="-4,4 -4,-242.8 1472,-242.8 1472,4 -4,4"/>
<text text-anchor="middle" x="734" y="-8.2" font-family="sans-serif" font-size="14.00">dependencies</text>
<g id="clust1" class="cluster">
<title>cluster_AppModule</title>
<polygon fill="none" stroke="black" stroke-dasharray="1,5" points="8,-32.8 8,-230.8 1460,-230.8 1460,-32.8 8,-32.8"/>
</g>
<g id="clust10" class="cluster">
<title>cluster_AppModule_imports</title>
<polygon fill="none" stroke="black" points="1308,-40.8 1308,-92.8 1452,-92.8 1452,-40.8 1308,-40.8"/>
</g>
<g id="clust12" class="cluster">
<title>cluster_AppModule_bootstrap</title>
<polygon fill="none" stroke="black" points="653,-170.8 653,-222.8 777,-222.8 777,-170.8 653,-170.8"/>
</g>
<g id="clust13" class="cluster">
<title>cluster_AppModule_providers</title>
<polygon fill="none" stroke="black" points="977,-40.8 977,-92.8 1300,-92.8 1300,-40.8 977,-40.8"/>
</g>
<g id="clust2" class="cluster">
<title>cluster_AppModule_declarations</title>
<polygon fill="none" stroke="black" points="16,-40.8 16,-92.8 969,-92.8 969,-40.8 16,-40.8"/>
</g>
<!-- AppComponent -->
<g id="node1" class="node">
<title>AppComponent</title>
<polygon fill="#ffffb3" stroke="black" points="960.94,-84.8 855.06,-84.8 855.06,-48.8 960.94,-48.8 960.94,-84.8"/>
<text text-anchor="middle" x="908" y="-62.6" font-family="Times,serif" font-size="14.00">AppComponent</text>
</g>
<!-- AppModule -->
<g id="node8" class="node">
<title>AppModule</title>
<polygon fill="#8dd3c7" stroke="black" points="756.66,-149.8 753.66,-153.8 732.66,-153.8 729.66,-149.8 673.34,-149.8 673.34,-113.8 756.66,-113.8 756.66,-149.8"/>
<text text-anchor="middle" x="715" y="-127.6" font-family="Times,serif" font-size="14.00">AppModule</text>
</g>
<!-- AppComponent&#45;&gt;AppModule -->
<g id="edge1" class="edge">
<title>AppComponent&#45;&gt;AppModule</title>
<path fill="none" stroke="black" d="M908,-84.81C908,-100.85 908,-121.8 908,-121.8 908,-121.8 766.88,-121.8 766.88,-121.8"/>
<polygon fill="black" stroke="black" points="766.88,-118.3 756.88,-121.8 766.88,-125.3 766.88,-118.3"/>
</g>
<!-- HomeComponent -->
<g id="node2" class="node">
<title>HomeComponent</title>
<polygon fill="#ffffb3" stroke="black" points="837.55,-84.8 722.45,-84.8 722.45,-48.8 837.55,-48.8 837.55,-84.8"/>
<text text-anchor="middle" x="780" y="-62.6" font-family="Times,serif" font-size="14.00">HomeComponent</text>
</g>
<!-- HomeComponent&#45;&gt;AppModule -->
<g id="edge2" class="edge">
<title>HomeComponent&#45;&gt;AppModule</title>
<path fill="none" stroke="black" d="M739.53,-84.91C739.53,-84.91 739.53,-103.79 739.53,-103.79"/>
<polygon fill="black" stroke="black" points="736.03,-103.79 739.53,-113.79 743.03,-103.79 736.03,-103.79"/>
</g>
<!-- MapComponent -->
<g id="node3" class="node">
<title>MapComponent</title>
<polygon fill="#ffffb3" stroke="black" points="704.49,-84.8 597.51,-84.8 597.51,-48.8 704.49,-48.8 704.49,-84.8"/>
<text text-anchor="middle" x="651" y="-62.6" font-family="Times,serif" font-size="14.00">MapComponent</text>
</g>
<!-- MapComponent&#45;&gt;AppModule -->
<g id="edge3" class="edge">
<title>MapComponent&#45;&gt;AppModule</title>
<path fill="none" stroke="black" d="M688.83,-84.91C688.83,-84.91 688.83,-103.79 688.83,-103.79"/>
<polygon fill="black" stroke="black" points="685.33,-103.79 688.83,-113.79 692.33,-103.79 685.33,-103.79"/>
</g>
<!-- MenuComponent -->
<g id="node4" class="node">
<title>MenuComponent</title>
<polygon fill="#ffffb3" stroke="black" points="579.99,-84.8 466.01,-84.8 466.01,-48.8 579.99,-48.8 579.99,-84.8"/>
<text text-anchor="middle" x="523" y="-62.6" font-family="Times,serif" font-size="14.00">MenuComponent</text>
</g>
<!-- MenuComponent&#45;&gt;AppModule -->
<g id="edge4" class="edge">
<title>MenuComponent&#45;&gt;AppModule</title>
<path fill="none" stroke="black" d="M523,-84.81C523,-100.85 523,-121.8 523,-121.8 523,-121.8 662.86,-121.8 662.86,-121.8"/>
<polygon fill="black" stroke="black" points="662.86,-125.3 672.86,-121.8 662.86,-118.3 662.86,-125.3"/>
</g>
<!-- UserAddComponent -->
<g id="node5" class="node">
<title>UserAddComponent</title>
<polygon fill="#ffffb3" stroke="black" points="447.88,-84.8 316.12,-84.8 316.12,-48.8 447.88,-48.8 447.88,-84.8"/>
<text text-anchor="middle" x="382" y="-62.6" font-family="Times,serif" font-size="14.00">UserAddComponent</text>
</g>
<!-- UserAddComponent&#45;&gt;AppModule -->
<g id="edge5" class="edge">
<title>UserAddComponent&#45;&gt;AppModule</title>
<path fill="none" stroke="black" d="M382,-85.07C382,-103.36 382,-128.8 382,-128.8 382,-128.8 663.16,-128.8 663.16,-128.8"/>
<polygon fill="black" stroke="black" points="663.16,-132.3 673.16,-128.8 663.16,-125.3 663.16,-132.3"/>
</g>
<!-- UserDetailComponent -->
<g id="node6" class="node">
<title>UserDetailComponent</title>
<polygon fill="#ffffb3" stroke="black" points="297.97,-84.8 156.03,-84.8 156.03,-48.8 297.97,-48.8 297.97,-84.8"/>
<text text-anchor="middle" x="227" y="-62.6" font-family="Times,serif" font-size="14.00">UserDetailComponent</text>
</g>
<!-- UserDetailComponent&#45;&gt;AppModule -->
<g id="edge6" class="edge">
<title>UserDetailComponent&#45;&gt;AppModule</title>
<path fill="none" stroke="black" d="M227,-84.93C227,-105.37 227,-135.8 227,-135.8 227,-135.8 662.97,-135.8 662.97,-135.8"/>
<polygon fill="black" stroke="black" points="662.97,-139.3 672.97,-135.8 662.97,-132.3 662.97,-139.3"/>
</g>
<!-- UsersComponent -->
<g id="node7" class="node">
<title>UsersComponent</title>
<polygon fill="#ffffb3" stroke="black" points="137.71,-84.8 24.29,-84.8 24.29,-48.8 137.71,-48.8 137.71,-84.8"/>
<text text-anchor="middle" x="81" y="-62.6" font-family="Times,serif" font-size="14.00">UsersComponent</text>
</g>
<!-- UsersComponent&#45;&gt;AppModule -->
<g id="edge7" class="edge">
<title>UsersComponent&#45;&gt;AppModule</title>
<path fill="none" stroke="black" d="M81,-84.81C81,-107.29 81,-142.8 81,-142.8 81,-142.8 662.91,-142.8 662.91,-142.8"/>
<polygon fill="black" stroke="black" points="662.91,-146.3 672.91,-142.8 662.91,-139.3 662.91,-146.3"/>
</g>
<!-- AppComponent  -->
<g id="node10" class="node">
<title>AppComponent </title>
<polygon fill="#80b1d3" stroke="black" points="769.44,-214.8 660.56,-214.8 660.56,-178.8 769.44,-178.8 769.44,-214.8"/>
<text text-anchor="middle" x="715" y="-192.6" font-family="Times,serif" font-size="14.00">AppComponent </text>
</g>
<!-- AppModule&#45;&gt;AppComponent  -->
<g id="edge9" class="edge">
<title>AppModule&#45;&gt;AppComponent </title>
<path fill="none" stroke="black" stroke-dasharray="1,5" d="M715,-149.91C715,-149.91 715,-168.79 715,-168.79"/>
<polygon fill="black" stroke="black" points="711.5,-168.79 715,-178.79 718.5,-168.79 711.5,-168.79"/>
</g>
<!-- AppRoutingModule -->
<g id="node9" class="node">
<title>AppRoutingModule</title>
<polygon fill="#8dd3c7" stroke="black" points="1444.28,-84.8 1441.28,-88.8 1420.28,-88.8 1417.28,-84.8 1315.72,-84.8 1315.72,-48.8 1444.28,-48.8 1444.28,-84.8"/>
<text text-anchor="middle" x="1380" y="-62.6" font-family="Times,serif" font-size="14.00">AppRoutingModule</text>
</g>
<!-- AppRoutingModule&#45;&gt;AppModule -->
<g id="edge8" class="edge">
<title>AppRoutingModule&#45;&gt;AppModule</title>
<path fill="none" stroke="black" d="M1380,-84.81C1380,-107.29 1380,-142.8 1380,-142.8 1380,-142.8 766.85,-142.8 766.85,-142.8"/>
<polygon fill="black" stroke="black" points="766.85,-139.3 756.85,-142.8 766.85,-146.3 766.85,-139.3"/>
</g>
<!-- ApiUserService -->
<g id="node11" class="node">
<title>ApiUserService</title>
<ellipse fill="#fdb462" stroke="black" cx="1221" cy="-66.8" rx="70.63" ry="18"/>
<text text-anchor="middle" x="1221" y="-62.6" font-family="Times,serif" font-size="14.00">ApiUserService</text>
</g>
<!-- ApiUserService&#45;&gt;AppModule -->
<g id="edge10" class="edge">
<title>ApiUserService&#45;&gt;AppModule</title>
<path fill="none" stroke="black" d="M1221,-84.93C1221,-105.37 1221,-135.8 1221,-135.8 1221,-135.8 766.84,-135.8 766.84,-135.8"/>
<polygon fill="black" stroke="black" points="766.84,-132.3 756.84,-135.8 766.84,-139.3 766.84,-132.3"/>
</g>
<!-- ErrorInterceptor -->
<g id="node12" class="node">
<title>ErrorInterceptor</title>
<ellipse fill="#fdb462" stroke="black" cx="1059" cy="-66.8" rx="73.54" ry="18"/>
<text text-anchor="middle" x="1059" y="-62.6" font-family="Times,serif" font-size="14.00">ErrorInterceptor</text>
</g>
<!-- ErrorInterceptor&#45;&gt;AppModule -->
<g id="edge11" class="edge">
<title>ErrorInterceptor&#45;&gt;AppModule</title>
<path fill="none" stroke="black" d="M1059,-85.07C1059,-103.36 1059,-128.8 1059,-128.8 1059,-128.8 766.84,-128.8 766.84,-128.8"/>
<polygon fill="black" stroke="black" points="766.84,-125.3 756.84,-128.8 766.84,-132.3 766.84,-125.3"/>
</g>
</g>
</svg>
